<?xml version="1.0" encoding="utf-8"?>
<!-- Generator: Adobe Illustrator 27.0.1, SVG Export Plug-In . SVG Version: 6.00 Build 0)  -->
<svg version="1.1" id="b847c0d8-de26-4ae3-b269-ef35a8ef771f"
	 xmlns="http://www.w3.org/2000/svg" xmlns:xlink="http://www.w3.org/1999/xlink" x="0px" y="0px" viewBox="0 0 1130 831.6"
	 style="enable-background:new 0 0 1130 831.6;" xml:space="preserve">
<style type="text/css">
	.st0{opacity:0.1;fill:#3FAD4F;enable-background:new    ;}
	.st1{fill:#D0D2D5;}
	.st2{opacity:0.1;enable-background:new    ;}
	.st3{fill:#444053;}
	.st4{fill:#3FAD4F;}
	.st5{fill:#FFFFFF;}
	.st6{opacity:0.3;fill:#3FAD4F;enable-background:new    ;}
	.st7{opacity:0.2;fill:#3F3D56;enable-background:new    ;}
	.st8{fill:#3F3D56;}
	.st9{fill:url(#SVGID_1_);}
	.st10{fill:#A26565;}
	.st11{fill:#454B69;}
	.st12{fill:#EFB7B9;}
	.st13{opacity:0.1;}
	.st14{fill:#828282;}
	.st15{font-family:'MyriadPro-Regular';}
	.st16{font-size:52.5435px;}
</style>
<path class="st0" d="M656.5,124.7c-72.4-2.5-141.4-25.9-207.3-51.5S318.1,19.3,247.4,5.7C201.9-3,149.9-4.2,113.2,20.1
	C78,43.6,66.6,84.1,60.5,121.7c-4.6,28.3-7.3,58,5.3,84.5c8.8,18.4,24.3,33.8,35.1,51.4c37.4,61.3,11,136.8-29.6,196.6
	c-19,28.1-41.1,54.8-55.8,84.7C0.7,568.8-6.1,603,6.8,633.4c12.8,30.2,43.1,52.9,76,68.8c66.8,32.4,145.5,41.7,222.3,46.9
	c169.9,11.6,340.8,6.6,511.2,1.6c63.1-1.9,126.4-3.8,188.4-13.5c34.4-5.4,70-14,95-34.8c31.8-26.3,39.6-70.9,18.3-104
	c-35.7-55.4-134.3-69.2-159.3-128.6c-13.7-32.7,0.4-69.2,20.3-99.5c42.8-65.1,114.5-122.2,118.3-196.6
	c2.6-51.1-31.9-102.3-85.2-126.5c-55.9-25.3-133.4-22.2-174.6,19.8C795.1,110.3,720.5,126.9,656.5,124.7z"/>
<polygon class="st1" points="664.2,755.9 469.2,753.4 469.8,748.4 479.2,665.9 650.4,665.9 663,748.4 664,754.6 "/>
<polygon class="st2" points="664,754.6 566.7,754.6 469.2,753.4 469.8,748.4 663,748.4 "/>
<rect x="436.7" y="749.6" class="st1" width="258.8" height="6.2"/>
<path class="st3" d="M942.3,170.4c0-9-7.2-16.3-16.2-16.4c0,0,0,0,0,0H203.5c-9,0-16.2,7.4-16.2,16.3c0,0,0,0,0,0v438h755V170.4z"/>
<path class="st1" d="M187.3,604v51.3c0,8.9,7.3,16.2,16.2,16.2l0,0h722.6c8.9,0,16.2-7.3,16.2-16.2V604H187.3z"/>
<rect x="218.6" y="181.5" class="st0" width="696.2" height="393.8"/>
<path class="st4" d="M568.5,652.1c5.2,0,10.1-2.4,13.3-6.4l0,0c0.5-0.6,0.9-1.3,1.3-1.9l-9.3-1.5l10,0.1c1.9-4.2,2.1-9.1,0.3-13.4
	l-13.4,7l12.4-9.1c-4.7-8-15-10.8-23.1-6.1s-10.8,15-6.1,23.1c0.4,0.7,0.8,1.3,1.3,1.9l0,0C558.5,649.7,563.4,652.1,568.5,652.1z"/>
<polygon class="st2" points="585.4,671.5 663.2,749.6 651.3,671.5 "/>
<path class="st5" d="M241.6,252.6h451.8c1.4,0,2.6,1.2,2.6,2.6V524c0,1.4-1.2,2.6-2.6,2.6H241.6c-1.4,0-2.6-1.2-2.6-2.6V255.2
	C239,253.7,240.2,252.6,241.6,252.6z"/>
<rect x="219" y="181.6" class="st5" width="696" height="23"/>
<path class="st4" d="M222.8,185.6h18.4c0.4,0,0.8,0.3,0.8,0.8v12.4c0,0.4-0.3,0.8-0.8,0.8h-18.4c-0.4,0-0.8-0.3-0.8-0.8v-12.4
	C222,185.9,222.3,185.6,222.8,185.6z"/>
<path class="st6" d="M460.6,185.6h208.8c0.3,0,0.6,0.3,0.6,0.6V199c0,0.3-0.3,0.6-0.6,0.6H460.6c-0.3,0-0.6-0.3-0.6-0.6v-12.8
	C460,185.8,460.3,185.6,460.6,185.6z"/>
<path class="st3" d="M663.8,194h-0.5l-0.2-0.2c0.6-0.8,1-1.7,1-2.7c0-2.3-1.9-4.1-4.2-4.1c-2.3,0-4.1,1.9-4.1,4.2
	c0,2.3,1.9,4.1,4.1,4.1c1,0,2-0.4,2.7-1l0.2,0.2v0.5l3.2,3.2l1-1L663.8,194z M659.9,194c-1.6,0-2.9-1.3-2.9-2.9s1.3-2.9,2.9-2.9
	s2.9,1.3,2.9,2.9c0,0,0,0,0,0C662.8,192.7,661.5,194,659.9,194C660,194,659.9,194,659.9,194z"/>
<circle class="st4" cx="905" cy="192.6" r="7"/>
<path class="st5" d="M731.4,229.6h60.1c1.3,0,2.4,1.1,2.4,2.4v39.1c0,1.3-1.1,2.4-2.4,2.4h-60.1c-1.3,0-2.4-1.1-2.4-2.4V232
	C729,230.6,730.1,229.6,731.4,229.6z"/>
<path class="st5" d="M811.6,229.6h82.8c0.3,0,0.6,0.3,0.6,0.6v5.8c0,0.3-0.3,0.6-0.6,0.6h-82.8c-0.3,0-0.6-0.3-0.6-0.6v-5.8
	C811,229.8,811.3,229.6,811.6,229.6z"/>
<path class="st5" d="M811.6,244.6h82.8c0.3,0,0.6,0.3,0.6,0.6v5.8c0,0.3-0.3,0.6-0.6,0.6h-82.8c-0.3,0-0.6-0.3-0.6-0.6v-5.8
	C811,244.8,811.3,244.6,811.6,244.6z"/>
<path class="st5" d="M811.6,259.6h82.8c0.3,0,0.6,0.3,0.6,0.6v5.8c0,0.3-0.3,0.6-0.6,0.6h-82.8c-0.3,0-0.6-0.3-0.6-0.6v-5.8
	C811,259.8,811.3,259.6,811.6,259.6z"/>
<path class="st5" d="M731.4,298.6h60.1c1.3,0,2.4,1.1,2.4,2.4v39.1c0,1.3-1.1,2.4-2.4,2.4h-60.1c-1.3,0-2.4-1.1-2.4-2.4V301
	C729,299.6,730.1,298.6,731.4,298.6z"/>
<path class="st5" d="M811.6,298.6h82.8c0.3,0,0.6,0.3,0.6,0.6v5.8c0,0.3-0.3,0.6-0.6,0.6h-82.8c-0.3,0-0.6-0.3-0.6-0.6v-5.8
	C811,298.8,811.3,298.6,811.6,298.6z"/>
<path class="st5" d="M811.6,313.6h82.8c0.3,0,0.6,0.3,0.6,0.6v5.8c0,0.3-0.3,0.6-0.6,0.6h-82.8c-0.3,0-0.6-0.3-0.6-0.6v-5.8
	C811,313.8,811.3,313.6,811.6,313.6z"/>
<path class="st5" d="M811.7,328.6h82.7c0.4,0,0.7,0.3,0.7,0.7v5.7c0,0.4-0.3,0.7-0.7,0.7h-82.7c-0.4,0-0.7-0.3-0.7-0.7v-5.7
	C811,328.9,811.3,328.6,811.7,328.6z"/>
<path class="st5" d="M731.4,367.6h60.1c1.3,0,2.4,1.1,2.4,2.4v39.1c0,1.3-1.1,2.4-2.4,2.4h-60.1c-1.3,0-2.4-1.1-2.4-2.4V370
	C729,368.6,730.1,367.6,731.4,367.6z"/>
<path class="st5" d="M811.7,367.6h82.7c0.4,0,0.7,0.3,0.7,0.7v5.7c0,0.4-0.3,0.7-0.7,0.7h-82.7c-0.4,0-0.7-0.3-0.7-0.7v-5.7
	C811,367.9,811.3,367.6,811.7,367.6z"/>
<path class="st5" d="M811.7,382.6h82.7c0.4,0,0.7,0.3,0.7,0.7v5.7c0,0.4-0.3,0.7-0.7,0.7h-82.7c-0.4,0-0.7-0.3-0.7-0.7v-5.7
	C811,382.9,811.3,382.6,811.7,382.6z"/>
<path class="st5" d="M811.7,397.6h82.7c0.4,0,0.7,0.3,0.7,0.7v5.7c0,0.4-0.3,0.7-0.7,0.7h-82.7c-0.4,0-0.7-0.3-0.7-0.7v-5.7
	C811,397.9,811.3,397.6,811.7,397.6z"/>
<path class="st5" d="M731.4,436.6h60.1c1.3,0,2.4,1.1,2.4,2.4v39.1c0,1.3-1.1,2.4-2.4,2.4h-60.1c-1.3,0-2.4-1.1-2.4-2.4V439
	C729,437.6,730.1,436.6,731.4,436.6z"/>
<path class="st5" d="M811.7,436.6h82.7c0.4,0,0.7,0.3,0.7,0.7v5.7c0,0.4-0.3,0.7-0.7,0.7h-82.7c-0.4,0-0.7-0.3-0.7-0.7v-5.7
	C811,436.9,811.3,436.6,811.7,436.6z"/>
<path class="st5" d="M811.7,451.6h82.7c0.4,0,0.7,0.3,0.7,0.7v5.7c0,0.4-0.3,0.7-0.7,0.7h-82.7c-0.4,0-0.7-0.3-0.7-0.7v-5.7
	C811,451.9,811.3,451.6,811.7,451.6z"/>
<path class="st5" d="M811.7,466.6h82.7c0.4,0,0.7,0.3,0.7,0.7v5.7c0,0.4-0.3,0.7-0.7,0.7h-82.7c-0.4,0-0.7-0.3-0.7-0.7v-5.7
	C811,466.9,811.3,466.6,811.7,466.6z"/>
<path class="st5" d="M731.4,505.6h60.1c1.3,0,2.4,1.1,2.4,2.4v39.1c0,1.3-1.1,2.4-2.4,2.4h-60.1c-1.3,0-2.4-1.1-2.4-2.4V508
	C729,506.6,730.1,505.6,731.4,505.6z"/>
<path class="st5" d="M811.7,505.6h82.7c0.4,0,0.7,0.3,0.7,0.7v5.7c0,0.4-0.3,0.7-0.7,0.7h-82.7c-0.4,0-0.7-0.3-0.7-0.7v-5.7
	C811,505.9,811.3,505.6,811.7,505.6z"/>
<path class="st5" d="M811.7,520.6h82.7c0.4,0,0.7,0.3,0.7,0.7v5.7c0,0.4-0.3,0.7-0.7,0.7h-82.7c-0.4,0-0.7-0.3-0.7-0.7v-5.7
	C811,520.9,811.3,520.6,811.7,520.6z"/>
<path class="st5" d="M811.7,535.6h82.7c0.4,0,0.7,0.3,0.7,0.7v5.7c0,0.4-0.3,0.7-0.7,0.7h-82.7c-0.4,0-0.7-0.3-0.7-0.7v-5.7
	C811,535.9,811.3,535.6,811.7,535.6z"/>
<rect x="304.9" y="325.2" class="st0" width="102.8" height="5.3"/>
<rect x="314.1" y="297" class="st0" width="9.9" height="28.2"/>
<rect x="328.5" y="297" class="st0" width="9.9" height="28.2"/>
<rect x="343" y="297" class="st0" width="9.9" height="28.2"/>
<rect x="357.5" y="297" class="st0" width="9.9" height="28.2"/>
<rect x="371.9" y="297" class="st0" width="9.9" height="28.2"/>
<rect x="386.4" y="297" class="st0" width="9.9" height="28.2"/>
<rect x="314.1" y="302.3" class="st0" width="9.9" height="3"/>
<rect x="328.5" y="302.3" class="st0" width="9.9" height="3"/>
<rect x="343" y="302.3" class="st0" width="9.9" height="3"/>
<rect x="357.5" y="302.3" class="st0" width="9.9" height="3"/>
<rect x="371.9" y="302.3" class="st0" width="9.9" height="3"/>
<rect x="386.4" y="302.3" class="st0" width="9.9" height="3"/>
<rect x="314.1" y="316" class="st0" width="9.9" height="3"/>
<rect x="328.5" y="316" class="st0" width="9.9" height="3"/>
<rect x="343" y="316" class="st0" width="9.9" height="3"/>
<rect x="357.5" y="316" class="st0" width="9.9" height="3"/>
<rect x="371.9" y="316" class="st0" width="9.9" height="3"/>
<rect x="386.4" y="316" class="st0" width="9.9" height="3"/>
<rect x="530.4" y="338.9" class="st0" width="102.8" height="5.3"/>
<rect x="539.5" y="310.7" class="st0" width="9.9" height="28.2"/>
<rect x="554" y="310.7" class="st0" width="9.9" height="28.2"/>
<rect x="568.5" y="310.7" class="st0" width="9.9" height="28.2"/>
<rect x="582.9" y="310.7" class="st0" width="9.9" height="28.2"/>
<rect x="597.4" y="310.7" class="st0" width="9.9" height="28.2"/>
<rect x="611.9" y="310.7" class="st0" width="9.9" height="28.2"/>
<rect x="539.5" y="316" class="st0" width="9.9" height="3"/>
<rect x="554" y="316" class="st0" width="9.9" height="3"/>
<rect x="568.5" y="316" class="st0" width="9.9" height="3"/>
<rect x="582.9" y="316" class="st0" width="9.9" height="3"/>
<rect x="597.4" y="316" class="st0" width="9.9" height="3"/>
<rect x="611.9" y="316" class="st0" width="9.9" height="3"/>
<rect x="539.5" y="329.7" class="st0" width="9.9" height="3"/>
<rect x="554" y="329.7" class="st0" width="9.9" height="3"/>
<rect x="568.5" y="329.7" class="st0" width="9.9" height="3"/>
<rect x="582.9" y="329.7" class="st0" width="9.9" height="3"/>
<rect x="597.4" y="329.7" class="st0" width="9.9" height="3"/>
<rect x="611.9" y="329.7" class="st0" width="9.9" height="3"/>
<rect x="530.4" y="377.7" class="st0" width="102.8" height="5.3"/>
<rect x="539.5" y="349.5" class="st0" width="9.9" height="28.2"/>
<rect x="554" y="349.5" class="st0" width="9.9" height="28.2"/>
<rect x="568.5" y="349.5" class="st0" width="9.9" height="28.2"/>
<rect x="582.9" y="349.5" class="st0" width="9.9" height="28.2"/>
<rect x="597.4" y="349.5" class="st0" width="9.9" height="28.2"/>
<rect x="611.9" y="349.5" class="st0" width="9.9" height="28.2"/>
<rect x="539.5" y="354.9" class="st0" width="9.9" height="3"/>
<rect x="554" y="354.9" class="st0" width="9.9" height="3"/>
<rect x="568.5" y="354.9" class="st0" width="9.9" height="3"/>
<rect x="582.9" y="354.9" class="st0" width="9.9" height="3"/>
<rect x="597.4" y="354.9" class="st0" width="9.9" height="3"/>
<rect x="611.9" y="354.9" class="st0" width="9.9" height="3"/>
<rect x="539.5" y="368.6" class="st0" width="9.9" height="3"/>
<rect x="554" y="368.6" class="st0" width="9.9" height="3"/>
<rect x="568.5" y="368.6" class="st0" width="9.9" height="3"/>
<rect x="582.9" y="368.6" class="st0" width="9.9" height="3"/>
<rect x="597.4" y="368.6" class="st0" width="9.9" height="3"/>
<rect x="611.9" y="368.6" class="st0" width="9.9" height="3"/>
<path class="st0" d="M368,385.4c-0.8-1-1.5-2-2.1-3.1l14.8-2.4l-16,0.1c-3.1-6.8-3.3-14.5-0.5-21.4l21.5,11.1l-19.8-14.6
	c7.4-13,23.9-17.5,36.8-10.1c13,7.4,17.5,23.9,10.1,36.8c-0.7,1.2-1.5,2.4-2.3,3.5c1.2,1.5,2.2,3.2,3.1,4.9l-19.2,10l20.5-6.9
	c2.9,8.6,1.3,18.1-4.4,25.3c9.2,11.7,7.2,28.7-4.5,37.9s-28.7,7.2-37.9-4.5c-7.7-9.8-7.7-23.6,0-33.4
	C360.3,409,360.3,395.2,368,385.4L368,385.4z"/>
<path class="st0" d="M416.2,402.1c0,6-2,11.9-5.8,16.7c9.2,11.7,7.2,28.7-4.5,37.9s-28.7,7.2-37.9-4.5c-7.7-9.8-7.7-23.6,0-33.4
	C364.4,414.2,416.2,399.1,416.2,402.1z"/>
<path class="st7" d="M393.5,469.7c0,0.1,0.1,0.1,0.1,0.2h-9.2c0-0.1,0.1-0.1,0.1-0.2c-0.8-1.4-1.2-2.9-1.2-4.5
	c0-1.1,0.2-2.2,0.5-3.2l0,0c0.5,0.1,1.1,0.2,1.9,0.2c2.1,0.2,4.3,0.2,6.4,0c0.6-0.1,1.2-0.1,1.9-0.2c0,0,0,0,0,0
	c0.4,1,0.5,2.1,0.5,3.1C394.7,466.7,394.3,468.3,393.5,469.7z"/>
<path class="st0" d="M360.6,469.9h-51c-0.1-0.3-0.2-0.6-0.3-0.9c-1.8-5.8-1.6-12,0.6-17.6c-10.2-7.1-14.3-20.3-9.9-31.9
	c-1-0.7-2-1.5-2.9-2.3l13.4-6.7l-15.3,4.8c-5-5.5-7.4-12.9-6.8-20.3l23.8,4.3l-23.2-8.1c3.2-14.6,17.6-23.8,32.2-20.6
	c14.6,3.2,23.8,17.6,20.6,32.2c-0.3,1.4-0.7,2.8-1.2,4.1c1.6,1.1,3.1,2.4,4.4,3.9L329.6,426l17.5-12.6c5.3,7.4,6.6,17,3.3,25.5
	C360.4,445.8,364.6,458.4,360.6,469.9z"/>
<path class="st0" d="M360.6,469.9h-51c-0.1-0.3-0.2-0.6-0.3-0.9c-1.8-5.8-1.6-12,0.6-17.6c-4.8-3.3,40.2-33.1,41.1-30.2
	c1.8,5.8,1.6,12-0.6,17.6C360.4,445.7,364.6,458.4,360.6,469.9z"/>
<path class="st0" d="M673.2,460.3c-3.1,5.2-7.9,9.2-13.5,11.4c0.2,1.9,0.3,3.9,0.1,5.8l-21.6-1.3l21.1,4.6c-0.6,2.9-1.7,5.6-3.2,8.2
	c-1.8,3.1-4.3,5.8-7.2,7.9h-29.4v0.8h-30c0.1-0.3,0.1-0.5,0.2-0.8c2.2-8.4,8.3-15.2,16.5-18.3c-1.6-12.4,5.5-24.2,17.1-28.6
	c-0.2-1.2-0.2-2.5-0.2-3.7l14,5.5l-13.8-8.1c0.8-7.4,4.7-14.1,10.6-18.6l12.7,20.6l-9.5-22.7c13-7.2,29.5-2.5,36.7,10.6
	C678.2,441.8,678.1,452.1,673.2,460.3L673.2,460.3z"/>
<path class="st0" d="M655.1,495.1c-1.8,3.1-4.3,5.8-7.2,7.9h-29.4v0.8h-30c0.1-0.3,0.1-0.5,0.2-0.8c2.2-8.4,8.3-15.2,16.5-18.3
	c-0.2-2,5.6-1.7,13.3-0.4C633.6,486.9,656.1,493.4,655.1,495.1z"/>
<ellipse class="st4" cx="957.1" cy="758.5" rx="59.5" ry="11.4"/>
<ellipse class="st8" cx="956.1" cy="753.7" rx="6.9" ry="9.1"/>
<ellipse class="st8" cx="956.1" cy="742.6" rx="6.9" ry="9.1"/>
<ellipse class="st8" cx="956.1" cy="731.5" rx="6.9" ry="9.1"/>
<ellipse class="st8" cx="956.1" cy="720.5" rx="6.9" ry="9.1"/>
<ellipse class="st8" cx="956.1" cy="709.4" rx="6.9" ry="9.1"/>
<ellipse class="st8" cx="956.1" cy="698.3" rx="6.9" ry="9.1"/>
<ellipse class="st8" cx="956.1" cy="687.2" rx="6.9" ry="9.1"/>
<path class="st4" d="M982,611.4c0.9-1.2,1.8-2.5,2.6-3.8l-18.2-3l19.7,0.2c3.8-8.3,4-17.8,0.6-26.3l-26.4,13.7l24.3-17.9
	c-9.2-15.9-29.5-21.3-45.3-12.1c-15.9,9.2-21.3,29.5-12.1,45.3c0.8,1.4,1.7,2.7,2.6,3.9c-1.5,1.9-2.7,3.9-3.8,6l23.6,12.3l-25.2-8.5
	c-3.6,10.6-1.6,22.3,5.3,31.1c-11.3,14.4-8.8,35.2,5.6,46.6s35.2,8.8,46.6-5.6c9.5-12,9.5-29,0-41
	C991.5,640.3,991.5,623.4,982,611.4L982,611.4z"/>
<path class="st2" d="M922.8,631.9c0,7.4,2.5,14.7,7.1,20.5c-11.3,14.4-8.8,35.2,5.6,46.6c14.4,11.3,35.2,8.8,46.6-5.6
	c9.5-12,9.5-29,0-41C986.5,646.8,922.8,628.2,922.8,631.9z"/>
<ellipse class="st0" cx="290" cy="810.6" rx="99" ry="21"/>
<linearGradient id="SVGID_1_" gradientUnits="userSpaceOnUse" x1="321.6458" y1="-25.1462" x2="321.6458" y2="384.8217" gradientTransform="matrix(1 0 0 -1 -35 797.78)">
	<stop  offset="0" style="stop-color:#808080;stop-opacity:0.25"/>
	<stop  offset="0.54" style="stop-color:#808080;stop-opacity:0.12"/>
	<stop  offset="1" style="stop-color:#808080;stop-opacity:0.1"/>
</linearGradient>
<path class="st9" d="M323.1,808.1c-2-0.7-4.1-0.6-6.2-0.8c-4.3-0.5-8.4-2.5-11.5-5.6c-2-2-3.5-4.4-4.6-7c0.7,0.2,1.3,0.5,2,0.8
	c-2-4.7,0.1-9.9,1.9-14.6c3.1-8,6.1-16,8.9-24.1c7-20.5,13-41.8,12.9-63.6c0-7.9-1.5-15.3-1.7-23.2c-0.2-5.8,0.7-11.7,0.6-17.5
	c0-0.8,0-1.6-0.1-2.5c3.6-3.2,5.6-7.9,5.3-12.7c-0.1-1.2-0.3-2.5-0.5-3.7c-0.4-2.1-0.8-4.2-1.4-6.3c-0.7-2.2-1.6-4.2-2.3-6.4
	c-1.5-4.1-2.5-8.4-3.8-12.6c0.5,0,0.9,0.2,1.4,0.4c-0.3-0.4-0.5-0.8-0.6-1.3c-0.7-2.7-1.1-5.4-1.2-8.2l0.9-0.4
	c0.4-2.7,0.2-5.4-0.4-8.1c0.5-4.3,1.2-8.6,1.7-12.9c0.2-1.6,0.1-3.6-1.4-4c-0.3-2.3-0.4-4.6-0.5-6.9c-0.4-8.1-0.8-16.1-1.2-24.2
	c-0.4-8.1-0.8-16.2-1-24.3c-0.1-5.1-0.2-10.5-1.4-15.4c0.2-2.4,0-4.7-0.7-7c-1.9-5.9-7.6-10.6-13.5-10.2c-1.7-2.5-3.9-4.7-6.4-6.5
	c1.2-2.6,2.6-5.3,3.7-7.4c9.4-3,16.2-12.3,16.2-23.3c0-4-0.9-8-2.8-11.6c0.2-0.4,0.3-0.9,0.4-1.4c0.5-2.2,0.3-4.4-0.5-6.5
	c-0.3-0.8-0.6-1.6-1-2.3c-0.3-0.5-0.5-1-0.8-1.5l-0.5-0.8c-0.3-0.5-0.6-0.9-1-1.4c-0.7-1-1.5-1.9-2.3-2.7c-1-1.1-2.1-2.1-3.3-2.9
	c-1.6-1.2-3.4-2-5.4-2.5c-1.1-0.2-2.3-0.3-3.4-0.3c-0.7,0-1.4,0-2.1,0.1c-1.4,0.1-2.8,0.2-4.2,0.2c-0.5,0-0.9,0-1.4-0.1
	c-2.4-0.3-4.9-0.8-7.2-1.5l-1.2-0.2c-0.4-0.1-0.8-0.1-1.2-0.2c-1.1-0.1-2.2-0.2-3.3-0.2h-1.1c-1.1,0.1-2.2,0.2-3.3,0.3l-1.1,0.2
	c-2.8,0.4-5.5,1.2-8,2.4c-0.3,0.1-0.7,0.3-1,0.5l-0.2,0.1c-0.3,0.1-0.5,0.3-0.8,0.5l-0.1,0.1l-0.9,0.5l-0.1,0
	c-7.9,5.3-12.6,15.5-13.8,25.5c-1.3,11.3,1,22.6,3.3,33.7l2.1,10c0.1,0.5,0.2,0.9,0.3,1.3c-3,2.4-5.2,5.6-6.6,9.1
	c-2,5-2,10.4-1.9,15.8c0,1.1,0.1,2.2,0.2,3.3c-0.2,2.1-0.5,4.2-0.6,6.3c-0.6,9.7,0.5,19.5,0.2,29.2c-0.2,7.5-1.4,15-0.8,22.4
	c0.5,6.6,2.2,13,4,19.4l2.5,9.1c0.1,0.5,0.3,0.9,0.6,1.2c0.4,0.3,0.9,0.4,1.4,0.3c-1.6,3.7-3,7.6-4.1,11.5c-0.8,2.4-1.2,4.9-1.5,7.4
	c-0.3,4.6,0.7,9.1,1.8,13.6c1.6,6.7,3.2,13.4,4.8,20.1c1.1,4.7,2.2,9.4,3.4,14.1c2.2,9.3,4.4,18.6,4.8,28.1c0.2,4.8-0.1,9.6-1,14.3
	c-2.9,14.1-3.3,28.6-1.2,42.8c1.7,12,4.4,23.9,8.1,35.4c0.8-0.4,1.6-0.8,2.5-1.2l-0.4,0.7c-1.2,2-2.2,4.1-3.2,6.2
	c-0.7,1.4-1.2,2.8-1.7,4.2c-1.3,4-1.5,8.3-1.7,12.5c-0.1,0.8,0,1.6,0.2,2.4c0.5,1.5,2.1,2.3,3.6,2.7c4.3,1.2,8.8,0.8,13.3,0.2
	c0,0.1,0.1,0.2,0.1,0.3c0.5,1.5,2.1,2.3,3.6,2.7c6.2,1.8,12.7,0.1,19.1-0.5s12.6-0.2,18.8-1.6c0.9-0.2,1.8-0.5,2.6-1
	c1.6-1.1,2.7-2.7,3.3-4.5c0.2-0.5,0.3-1,0.4-1.5C327,810.8,325.1,808.8,323.1,808.1z M302,715.5c-0.3,2.3-1,4.6-2,6.8
	c-4.8,10.2-8.3,21-10.3,32.2c-1.3,7.3-2.1,14.8-2.3,22.2c-0.1,5.5,0.1,11.3-2.2,16.2l0.8-0.1c-0.3,0.5-0.5,1-0.8,1.4l-0.1,0.2
	c-1.4-2.4-2.3-5-2.7-7.7c0-0.1-0.5-0.2-1.1-0.2c-2.8-15.8-3.8-31.9-2.9-47.9c0-1.9,0.3-3.9,0.8-5.8c0.5-1.6,1.4-3.1,2-4.6
	c1-2.6,1.7-5.4,2-8.1c1.1-7.1,1.5-14.3,1.3-21.5c-0.2-6.8,1.3-13.5,2.7-20.3c0.6-3.2,1.2-6.4,1.5-9.7l0.1-0.7
	c5.9,9.8,10.1,20.6,12.3,31.9C302.3,705,302.6,710.3,302,715.5z M259.2,571l0.3,0.3c1,0.9,1.9,1.8,2.7,2.8c0.4,0.4,0.7,1,0.8,1.5
	c0.3,1.5-0.9,2.7-1.9,3.8c-0.4,0.5-0.8,1-1.2,1.5C259.7,577.6,259.5,574.3,259.2,571L259.2,571z"/>
<path class="st4" d="M245.4,508.3l-1.1,8.5c-0.4,2.9-0.7,5.8-0.9,8.6c-0.7,9.6,0.6,19.3,0.2,28.9c-0.3,7.4-1.4,14.8-0.9,22.2
	c0.5,6.5,2.4,12.9,4.2,19.2l2.6,9c0.1,0.5,0.3,0.9,0.7,1.2c0.5,0.3,1.1,0.4,1.7,0.3l11.7-1.1c-0.8-3.4-1.6-7-2-10.5
	c-0.3-2.8-0.5-5.5-0.7-8.3c-0.6-8.7-1.3-17.3-2-26l-1.2-15.2c-0.5-6.6-1.1-13.2-2.7-19.6C253.3,519.1,250,513.1,245.4,508.3z"/>
<path class="st2" d="M245.4,508.3l-1.1,8.5c-0.4,2.9-0.7,5.8-0.9,8.6c-0.7,9.6,0.6,19.3,0.2,28.9c-0.3,7.4-1.4,14.8-0.9,22.2
	c0.5,6.5,2.4,12.9,4.2,19.2l2.6,9c0.1,0.5,0.3,0.9,0.7,1.2c0.5,0.3,1.1,0.4,1.7,0.3l11.7-1.1c-0.8-3.4-1.6-7-2-10.5
	c-0.3-2.8-0.5-5.5-0.7-8.3c-0.6-8.7-1.3-17.3-2-26l-1.2-15.2c-0.5-6.6-1.1-13.2-2.7-19.6C253.3,519.1,250,513.1,245.4,508.3z"/>
<path class="st10" d="M266.2,797.3c-0.7,1.4-1.3,2.7-1.8,4.2c-1.3,3.9-1.5,8.2-1.7,12.4c-0.1,0.8,0,1.6,0.2,2.4
	c0.6,1.5,2.2,2.3,3.8,2.7c6.5,1.8,13.3,0.1,20-0.5s13.3-0.2,19.7-1.6c1-0.2,1.9-0.5,2.7-0.9c1.6-1.1,2.8-2.6,3.5-4.5
	c0.2-0.5,0.3-1,0.4-1.5c0.2-2.2-1.7-4.1-3.8-4.8c-2.1-0.7-4.4-0.6-6.5-0.8c-9.3-0.9-16.8-8-18.2-17.2c-0.1-0.5-10.8-0.2-12,0.4
	c-1.3,0.7-2.1,2.5-2.9,3.8C268.4,793.2,267.3,795.2,266.2,797.3z"/>
<path class="st2" d="M266.2,797.3c-0.7,1.4-1.3,2.7-1.8,4.2c-1.3,3.9-1.5,8.2-1.7,12.4c-0.1,0.8,0,1.6,0.2,2.4
	c0.6,1.5,2.2,2.3,3.8,2.7c6.5,1.8,13.3,0.1,20-0.5s13.3-0.2,19.7-1.6c1-0.2,1.9-0.5,2.7-0.9c1.6-1.1,2.8-2.6,3.5-4.5
	c0.2-0.5,0.3-1,0.4-1.5c0.2-2.2-1.7-4.1-3.8-4.8c-2.1-0.7-4.4-0.6-6.5-0.8c-9.3-0.9-16.8-8-18.2-17.2c-0.1-0.5-10.8-0.2-12,0.4
	c-1.3,0.7-2.1,2.5-2.9,3.8C268.4,793.2,267.3,795.2,266.2,797.3z"/>
<path class="st10" d="M284.1,800.5c-0.7,1.3-1.3,2.7-1.8,4.2c-1.4,4-1.5,8.2-1.7,12.4c-0.1,0.8,0,1.6,0.2,2.4
	c0.6,1.5,2.2,2.3,3.8,2.7c6.5,1.7,13.3,0.1,20-0.5s13.3-0.2,19.7-1.6c1-0.2,1.9-0.5,2.7-1c1.6-1.1,2.9-2.6,3.5-4.5
	c0.2-0.5,0.3-1,0.4-1.5c0.2-2.2-1.7-4.1-3.8-4.8c-2.1-0.7-4.4-0.6-6.5-0.8c-9.3-1-16.7-8-18.2-17.2c-0.1-0.5-10.8-0.2-12,0.4
	c-1.3,0.7-2.1,2.5-2.9,3.8C286.2,796.4,285.1,798.4,284.1,800.5z"/>
<path class="st11" d="M330.6,694.3c0.1,21.6-6.1,42.7-13.5,63c-2.9,8-6,16-9.3,23.9c-1.9,4.7-4.1,9.9-2,14.5
	c-6-2.3-12.1-3.6-18.4-2.6c2.4-4.9,2.2-10.6,2.3-16c0.2-7.4,1-14.8,2.4-22.1c2.1-11.1,5.7-21.8,10.8-31.9c1-2.1,1.7-4.4,2.1-6.7
	c0.8-5.1,0.2-10.4-0.9-15.5c-2.3-11.2-6.7-22-12.9-31.6L291,670c-0.4,3.2-0.9,6.4-1.6,9.6c-1.4,6.7-3.1,13.4-2.8,20.1
	c0.3,7.1-0.2,14.3-1.3,21.3c-0.4,2.8-1.1,5.5-2.1,8.1c-0.7,1.5-1.6,3-2.1,4.6c-0.5,1.9-0.8,3.8-0.8,5.7c-0.8,16.3,0,32.8,3.3,48.7
	c-5.6-0.4-11.1,1.2-16.1,3.7c-3.9-11.4-6.7-23.2-8.5-35.1c-2.2-14.1-1.7-28.5,1.3-42.5c0.9-4.7,1.3-9.4,1-14.2
	c-0.4-9.4-2.8-18.7-5.1-27.9l-3.5-14c-1.7-6.7-3.3-13.3-5-19.9c-1.1-4.4-2.2-8.9-1.9-13.5c0.2-2.5,0.8-4.9,1.6-7.3
	c2.5-8.1,6.2-15.7,11.1-22.6c19.3,1.1,38.8-0.7,58-2.2c0.9-0.2,1.9,0,2.7,0.5c0.7,0.7,1,1.5,1.1,2.5l7.2,41c1.2,5.7,1.9,11.5,2,17.3
	c0,5.8-0.9,11.6-0.7,17.4C329.1,679.1,330.6,686.5,330.6,694.3z"/>
<path class="st2" d="M291,670c-0.4,3.2-0.9,6.4-1.6,9.6c-4.2-7.2-8.7-14.3-12.6-21.8c-1-1.9-1.9-3.8-2.9-5.8l-2.9-5.8
	c-0.5-1.1-1.1-2.2-1.5-3.3c-0.8-1.6-1.4-3.3-1.8-5c1.4-0.3,4.9,3.5,5.9,4.5c2.1,2.1,4.1,4.3,6,6.6c2.3,2.6,4.4,5.3,6.3,8.2
	C288.4,661.2,290.1,665.5,291,670z"/>
<path class="st12" d="M307.1,471.1c0,0-10.7,17-8.7,20.6s-33.7-3.2-33.7-3.2s19.4-17,17.4-24.2S307.1,471.1,307.1,471.1z"/>
<circle class="st12" cx="297.6" cy="452" r="24.2"/>
<path class="st4" d="M307.5,489c-2.6-3.6-6.1-6.4-10.2-8.2c-2.3-0.8-4.8-1.4-7.2-1.8l-9.6-1.7c-2.4-0.4-4.9-0.8-7.1,0.2
	c-1.1,0.6-2.1,1.3-3,2.2c-3.4,3.1-6.6,6.5-10.8,8.3c-1.1,0.5-2.4,0.8-3.5,1.3c-4.7,2-8.2,6.3-10.2,11c-2.1,4.9-2.2,10.3-2,15.7
	c0,1.9,0.2,3.7,0.5,5.5c0.5,1.7,1.1,3.4,1.8,5.1c1.3,3.5,2.4,7.1,3.3,10.7c2.5,9.6,4.6,19.2,6.2,29c0.1,1.4,0.6,2.8,1.2,4
	c0.9,1.2,2.1,2.3,3.3,3.2c1,0.8,1.9,1.8,2.8,2.8c0.4,0.4,0.7,0.9,0.9,1.5c0.3,1.4-1,2.7-2,3.7c-2.2,2.2-3.7,4.9-4.5,7.9
	c-0.5,0.6-0.8,1.4-0.7,2.2c0.2,0.5,0.3,1.1,0.2,1.7c-0.2,0.5-0.5,1-0.9,1.4c-0.9,1.2-1.3,2.8-1,4.3c7.5,3.3,15.5,5.1,23.7,5.5
	c2,0.1,4,0.1,6,0.3c1.4,0.2,2.8,0.5,4.2,0.6c2.1,0.2,4.1,0.2,6.2,0.2c10.8-0.2,21.9-0.5,31.7-4.8c0.9-5.1-1.1-10.2-2.3-15.2
	c-2-8-2.5-16.2-4-24.3c-1-5.5-2.5-10.9-3.4-16.5c-0.9-5.5-1-11.3,0.5-16.7c1.4-4.8,1.8-9.7,3.2-14.4c1.4-4.8,2.4-9.9,0.8-14.7
	C319.7,493.3,313.6,488.6,307.5,489z"/>
<path class="st10" d="M319.3,439.2c1.2-4.3-1.1-8.8-3.9-12.2c-3-3.8-6.8-7.1-11.5-8.1c-3.8-0.8-7.8,0.2-11.6-0.1
	c-3.4-0.3-6.7-1.5-10.1-2c-3.1-0.3-6.2-0.2-9.3,0.4c-2.9,0.4-5.7,1.2-8.5,2.4c-10.3,4.6-16.3,15.8-17.7,27s1,22.4,3.5,33.4l2.2,9.9
	c2.3,10.3,4.6,20.7,5.2,31.3c0.6,10.6-0.5,21.4-4.9,31.1c14.1-7.6,25-19.9,30.7-34.8c1.6-4.1,2.7-8.3,4.5-12.4
	c1.5-3.5,3.4-6.7,4.7-10.3c1.5-4,2.2-8.2,2.1-12.5c-0.1-3.2-0.6-6.4-0.5-9.6s0.9-6.5,3.1-8.9c2-2,4.8-3,7.3-4.3
	c4-2,7.5-4.9,10.2-8.5c1.6-2.1,1.7-3,2.1-5.4S318.7,441.5,319.3,439.2z"/>
<path class="st12" d="M319.4,620.9c0.2,2.5-0.2,5,0.3,7.5c0.4,1.8,1.4,3.5,1.9,5.3c0.6,2.1,0.8,4.2,0.9,6.4c0.1,1.8-0.1,4-1.7,4.8
	c-0.7,0.4-1.5,0.4-2.3,0.7c-0.7,0.3-1.4,1.2-0.9,1.9c0.4,0.7,1.1,0.6,1.8,0.7s1.4,0.8,1,1.4c-0.2,0.2-0.4,0.3-0.6,0.4
	c-0.7,0.2-1.3,0.5-1.9,0.9c-0.6,0.4-0.9,1.1-0.8,1.8c0.1,0.6,0.8,1,1.4,0.8c0.1,0,0.2-0.1,0.2-0.1c-0.3,0.6-0.5,1.3-0.5,2
	c2.6,1.1,5.4-0.3,7.8-1.7c1-0.6,2-1.2,3-1.9c3.9-3,6.1-7.8,5.8-12.8c-0.1-1.2-0.3-2.4-0.6-3.7c-0.4-2.1-0.9-4.2-1.5-6.2
	c-0.7-2.2-1.6-4.2-2.4-6.3c-1.7-4.5-2.8-9.2-4.4-13.7c-0.1-0.5-0.4-0.9-0.8-1.2c-0.3-0.2-0.7-0.2-1.1-0.2c-1.8-0.1-3.5,0.1-5.2,0.5
	c-1,0.3-2.7,1-3.2,2s0.3,1.8,0.7,2.7C318,615.3,319,618.1,319.4,620.9z"/>
<path class="st2" d="M317.7,499.4c0.5,0.5,0.9,1.1,1.3,1.8c3.4,6.2,3.5,13.7,3.6,20.9c0.2,8,0.6,16,1.1,24l1.3,24
	c0.1,2.3,0.2,4.6,0.6,6.8c1.5,0.4,1.6,2.4,1.4,4c-1.1,9.8-3.9,19.8-1,29.3c0.1,0.5,0.3,0.9,0.7,1.3c-1.5-0.5-3-0.5-4.5-0.1
	c-1.4,0.3-2.8,0.8-4.2,1.2c-1.8,0.4-3.9,0.6-5.1,2c-1.4-4.2-2.5-8.5-3.4-12.9c-0.7-4-0.9-8.1-2.5-11.8c-0.6-1.5-1.5-2.9-2.3-4.3
	c-4.2-7.5-6.2-15.9-8.3-24.3c-0.9-4-1.1-8-0.6-12.1c0.3-1.8,0.5-3.7,0.5-5.6c-0.1-2-0.4-3.9-0.8-5.8c-0.8-5.7-0.5-11.4,1.2-16.9
	c1.5-5.1,2.8-10.4,6-14.7S312.4,499.5,317.7,499.4z"/>
<path class="st4" d="M318.9,498.6c0.5,0.5,0.9,1.1,1.3,1.8c3.4,6.2,3.5,13.7,3.6,20.9c0.2,8,0.6,16,1.1,24l1.3,24
	c0.1,2.3,0.2,4.6,0.6,6.8c1.5,0.4,1.6,2.4,1.4,4c-1.1,9.8-3.9,19.8-1,29.3c0.1,0.5,0.3,0.9,0.7,1.3c-1.5-0.5-3-0.5-4.5-0.1
	c-1.4,0.3-2.8,0.8-4.2,1.2c-1.8,0.4-3.9,0.6-5.1,2c-1.4-4.2-2.5-8.6-3.3-13c-0.7-4-0.9-8.1-2.5-11.8c-0.7-1.5-1.5-2.9-2.3-4.3
	c-4.2-7.5-6.2-15.9-8.3-24.3c-0.9-4-1.1-8-0.6-12.1c0.8-3.8,0.7-7.7-0.3-11.4c-0.8-5.7-0.5-11.4,1.2-16.9c1.5-5.1,2.8-10.4,6-14.7
	S313.6,498.7,318.9,498.6z"/>
<g class="st13">
	<path d="M315.4,427c-3-3.8-6.8-7.1-11.5-8.1c-3.8-0.8-7.8,0.2-11.6-0.1c-3.4-0.3-6.7-1.5-10.1-2c-3.1-0.3-6.2-0.2-9.3,0.4
		c-2.9,0.4-5.7,1.2-8.5,2.4c-1.5,0.7-2.9,1.4-4.2,2.4c2.4-0.9,4.9-1.6,7.5-2c3.1-0.6,6.2-0.7,9.3-0.4c3.4,0.4,6.7,1.7,10.1,1.9
		c3.9,0.3,7.8-0.6,11.6,0.1c4.7,0.9,8.5,4.3,11.5,8.1c2.8,3.5,5.1,8,3.9,12.2c-0.6,2.3-2.1,4.2-2.5,6.6s-0.5,3.3-2.1,5.4
		c-2.1,2.7-4.5,5-7.3,6.8c0.8-0.4,1.6-0.7,2.3-1.1c4-2,7.5-4.9,10.2-8.5c1.6-2.1,1.7-3,2.1-5.4s1.8-4.3,2.5-6.6
		C320.5,434.9,318.2,430.5,315.4,427z"/>
	<path d="M297.3,464c0.4-0.4,0.9-0.8,1.4-1.2c-2.3,1.1-4.7,2.1-6.5,4c-2.2,2.3-3,5.6-3.1,8.9s0.5,6.4,0.5,9.6
		c0.1,4.3-0.6,8.5-2.1,12.5c-1.3,3.5-3.2,6.8-4.7,10.3c-1.7,4-2.9,8.3-4.5,12.3c-5,12.9-13.9,24-25.4,31.6c-0.1,0.1-0.1,0.3-0.2,0.4
		c14.1-7.6,25-19.9,30.7-34.8c1.6-4.1,2.7-8.3,4.5-12.4c1.5-3.5,3.4-6.7,4.7-10.3c1.5-4,2.2-8.2,2.1-12.5c-0.1-3.2-0.6-6.4-0.5-9.6
		S295.1,466.3,297.3,464z"/>
</g>
<text transform="matrix(1.0212 0 0 1 307.0998 349.5399)" class="st14 st15 st16">Book Your Time</text>
</svg>
