<?xml version="1.0" encoding="utf-8"?>
<!-- Generator: Adobe Illustrator 25.0.1, SVG Export Plug-In . SVG Version: 6.00 Build 0)  -->
<svg version="1.1" id="Layer_1" xmlns="http://www.w3.org/2000/svg" xmlns:xlink="http://www.w3.org/1999/xlink" x="0px" y="0px"
	 viewBox="0 0 162 162" style="enable-background:new 0 0 162 162;" xml:space="preserve">
<style type="text/css">
	.st0{fill:#3FAD4F;}
	.st1{opacity:0.5;}
	.st2{fill:none;stroke:#3FAD4F;stroke-width:0.5;stroke-miterlimit:10;}
	.st3{fill:#FFFFFF;}
</style>
<rect x="-2.07" y="-2.07" class="st0" width="166.14" height="166.14"/>
<g class="st1">
	<path class="st2" d="M-18.99,13.14V8.99h3.93v4.15H-18.99z"/>
	<path class="st2" d="M-7.95,2.82v6.21c0,0.87,0.4,1.07,0.99,1.07c0.27,0,1.34-0.02,1.34-0.02v2.96c-0.25,0.05-1.02,0.2-2.41,0.2
		c-2.09,0-3.7-0.65-3.7-3.68V2.8h-1.89V0.46h1.89v-4.05h3.78v4.08h2.54v2.34H-7.95z"/>
	<path class="st2" d="M-0.39,7.45V7.6c0,1.74,1.19,3.08,2.96,3.08c1.81,0,2.88-1.24,3.28-2.31l2.88,1.49
		c-1.47,2.46-3.78,3.75-6.46,3.75c-3.95,0-6.56-2.51-6.56-6.71c0-3.26,1.59-7.13,6.66-7.13c4.87,0,6.51,3.9,6.51,7.51v0.17H-0.39z
		 M4.93,5.06C4.88,3.62,3.91,2.5,2.34,2.5c-1.81,0-2.56,1.52-2.73,2.56H4.93z"/>
	<path class="st2" d="M22.43,10.08c-1.47,2.56-3.78,3.48-5.77,3.48c-3.03,0-6.44-1.94-6.44-6.81c0-5.19,3.58-6.96,6.51-6.96
		c1.17,0,3.73,0.25,5.54,3.13l-2.83,1.62c-0.35-0.72-1.04-1.81-2.54-1.81c-2.04,0-2.76,2.34-2.76,3.9c0,1.64,0.77,3.9,2.88,3.9
		c1.49,0,2.24-1.12,2.51-1.94L22.43,10.08z"/>
	<path class="st2" d="M31.85,13.14V6.13c0-1.34-0.07-3.06-1.96-3.06c-1.59,0-2.06,1.19-2.06,3.23v6.84h-3.83V-4.41h3.83v5.97
		c1.42-1.57,2.96-1.74,3.7-1.74c2.68,0,4.13,1.69,4.13,4.45v8.87H31.85z"/>
	<path class="st2" d="M38.44,13.14V8.99h3.93v4.15H38.44z"/>
	<path class="st2" d="M49.47,2.82v6.21c0,0.87,0.4,1.07,0.99,1.07c0.27,0,1.34-0.02,1.34-0.02v2.96c-0.25,0.05-1.02,0.2-2.41,0.2
		c-2.09,0-3.7-0.65-3.7-3.68V2.8h-1.89V0.46h1.89v-4.05h3.78v4.08h2.54v2.34H49.47z"/>
	<path class="st2" d="M57.03,7.45V7.6c0,1.74,1.19,3.08,2.96,3.08c1.81,0,2.88-1.24,3.28-2.31l2.88,1.49
		c-1.47,2.46-3.78,3.75-6.46,3.75c-3.95,0-6.56-2.51-6.56-6.71c0-3.26,1.59-7.13,6.66-7.13c4.87,0,6.51,3.9,6.51,7.51v0.17H57.03z
		 M62.35,5.06C62.3,3.62,61.33,2.5,59.77,2.5c-1.81,0-2.56,1.52-2.73,2.56H62.35z"/>
	<path class="st2" d="M79.85,10.08c-1.47,2.56-3.78,3.48-5.77,3.48c-3.03,0-6.44-1.94-6.44-6.81c0-5.19,3.58-6.96,6.51-6.96
		c1.17,0,3.73,0.25,5.54,3.13l-2.83,1.62c-0.35-0.72-1.04-1.81-2.54-1.81c-2.04,0-2.76,2.34-2.76,3.9c0,1.64,0.77,3.9,2.88,3.9
		c1.49,0,2.24-1.12,2.51-1.94L79.85,10.08z"/>
	<path class="st2" d="M89.27,13.14V6.13c0-1.34-0.07-3.06-1.96-3.06c-1.59,0-2.06,1.19-2.06,3.23v6.84h-3.83V-4.41h3.83v5.97
		c1.42-1.57,2.96-1.74,3.7-1.74c2.68,0,4.13,1.69,4.13,4.45v8.87H89.27z"/>
	<path class="st2" d="M95.86,13.14V8.99h3.93v4.15H95.86z"/>
	<path class="st2" d="M106.9,2.82v6.21c0,0.87,0.4,1.07,0.99,1.07c0.27,0,1.34-0.02,1.34-0.02v2.96c-0.25,0.05-1.02,0.2-2.41,0.2
		c-2.09,0-3.7-0.65-3.7-3.68V2.8h-1.89V0.46h1.89v-4.05h3.78v4.08h2.54v2.34H106.9z"/>
	<path class="st2" d="M114.45,7.45V7.6c0,1.74,1.19,3.08,2.96,3.08c1.81,0,2.88-1.24,3.28-2.31l2.88,1.49
		c-1.47,2.46-3.78,3.75-6.46,3.75c-3.95,0-6.56-2.51-6.56-6.71c0-3.26,1.59-7.13,6.66-7.13c4.87,0,6.51,3.9,6.51,7.51v0.17H114.45z
		 M119.77,5.06c-0.05-1.44-1.02-2.56-2.59-2.56c-1.81,0-2.56,1.52-2.73,2.56H119.77z"/>
	<path class="st2" d="M137.27,10.08c-1.47,2.56-3.78,3.48-5.77,3.48c-3.03,0-6.44-1.94-6.44-6.81c0-5.19,3.58-6.96,6.51-6.96
		c1.17,0,3.73,0.25,5.54,3.13l-2.83,1.62c-0.35-0.72-1.04-1.81-2.54-1.81c-2.04,0-2.76,2.34-2.76,3.9c0,1.64,0.77,3.9,2.88,3.9
		c1.49,0,2.24-1.12,2.51-1.94L137.27,10.08z"/>
	<path class="st2" d="M146.7,13.14V6.13c0-1.34-0.07-3.06-1.96-3.06c-1.59,0-2.06,1.19-2.06,3.23v6.84h-3.83V-4.41h3.83v5.97
		c1.42-1.57,2.96-1.74,3.7-1.74c2.68,0,4.13,1.69,4.13,4.45v8.87H146.7z"/>
	<path class="st2" d="M153.28,13.14V8.99h3.93v4.15H153.28z"/>
	<path class="st2" d="M164.32,2.82v6.21c0,0.87,0.4,1.07,0.99,1.07c0.27,0,1.34-0.02,1.34-0.02v2.96c-0.25,0.05-1.02,0.2-2.41,0.2
		c-2.09,0-3.7-0.65-3.7-3.68V2.8h-1.89V0.46h1.89v-4.05h3.78v4.08h2.54v2.34H164.32z"/>
	<path class="st2" d="M171.88,7.45V7.6c0,1.74,1.19,3.08,2.96,3.08c1.81,0,2.88-1.24,3.28-2.31L181,9.86
		c-1.47,2.46-3.78,3.75-6.46,3.75c-3.95,0-6.56-2.51-6.56-6.71c0-3.26,1.59-7.13,6.66-7.13c4.87,0,6.51,3.9,6.51,7.51v0.17H171.88z
		 M177.2,5.06c-0.05-1.44-1.02-2.56-2.59-2.56c-1.81,0-2.56,1.52-2.73,2.56H177.2z"/>
	<path class="st2" d="M194.7,10.08c-1.47,2.56-3.78,3.48-5.77,3.48c-3.03,0-6.44-1.94-6.44-6.81c0-5.19,3.58-6.96,6.51-6.96
		c1.17,0,3.73,0.25,5.54,3.13l-2.83,1.62c-0.35-0.72-1.04-1.81-2.54-1.81c-2.04,0-2.76,2.34-2.76,3.9c0,1.64,0.77,3.9,2.88,3.9
		c1.49,0,2.24-1.12,2.51-1.94L194.7,10.08z"/>
	<path class="st2" d="M204.12,13.14V6.13c0-1.34-0.07-3.06-1.96-3.06c-1.59,0-2.06,1.19-2.06,3.23v6.84h-3.83V-4.41h3.83v5.97
		c1.42-1.57,2.96-1.74,3.7-1.74c2.68,0,4.13,1.69,4.13,4.45v8.87H204.12z"/>
	<path class="st2" d="M-18.99,42.97v-4.15h3.93v4.15H-18.99z"/>
	<path class="st2" d="M-7.95,32.65v6.21c0,0.87,0.4,1.07,0.99,1.07c0.27,0,1.34-0.02,1.34-0.02v2.96c-0.25,0.05-1.02,0.2-2.41,0.2
		c-2.09,0-3.7-0.65-3.7-3.68v-6.76h-1.89v-2.34h1.89v-4.05h3.78v4.08h2.54v2.34H-7.95z"/>
	<path class="st2" d="M-0.39,37.28v0.15c0,1.74,1.19,3.08,2.96,3.08c1.81,0,2.88-1.24,3.28-2.31l2.88,1.49
		c-1.47,2.46-3.78,3.75-6.46,3.75c-3.95,0-6.56-2.51-6.56-6.71c0-3.26,1.59-7.13,6.66-7.13c4.87,0,6.51,3.9,6.51,7.51v0.17H-0.39z
		 M4.93,34.89c-0.05-1.44-1.02-2.56-2.59-2.56c-1.81,0-2.56,1.52-2.73,2.56H4.93z"/>
	<path class="st2" d="M22.43,39.91c-1.47,2.56-3.78,3.48-5.77,3.48c-3.03,0-6.44-1.94-6.44-6.81c0-5.19,3.58-6.96,6.51-6.96
		c1.17,0,3.73,0.25,5.54,3.13l-2.83,1.62c-0.35-0.72-1.04-1.81-2.54-1.81c-2.04,0-2.76,2.34-2.76,3.9c0,1.64,0.77,3.9,2.88,3.9
		c1.49,0,2.24-1.12,2.51-1.94L22.43,39.91z"/>
	<path class="st2" d="M31.85,42.97v-7.01c0-1.34-0.07-3.06-1.96-3.06c-1.59,0-2.06,1.19-2.06,3.23v6.84h-3.83V25.42h3.83v5.97
		c1.42-1.57,2.96-1.74,3.7-1.74c2.68,0,4.13,1.69,4.13,4.45v8.87H31.85z"/>
	<path class="st2" d="M38.44,42.97v-4.15h3.93v4.15H38.44z"/>
	<path class="st2" d="M49.47,32.65v6.21c0,0.87,0.4,1.07,0.99,1.07c0.27,0,1.34-0.02,1.34-0.02v2.96c-0.25,0.05-1.02,0.2-2.41,0.2
		c-2.09,0-3.7-0.65-3.7-3.68v-6.76h-1.89v-2.34h1.89v-4.05h3.78v4.08h2.54v2.34H49.47z"/>
	<path class="st2" d="M57.03,37.28v0.15c0,1.74,1.19,3.08,2.96,3.08c1.81,0,2.88-1.24,3.28-2.31l2.88,1.49
		c-1.47,2.46-3.78,3.75-6.46,3.75c-3.95,0-6.56-2.51-6.56-6.71c0-3.26,1.59-7.13,6.66-7.13c4.87,0,6.51,3.9,6.51,7.51v0.17H57.03z
		 M62.35,34.89c-0.05-1.44-1.02-2.56-2.59-2.56c-1.81,0-2.56,1.52-2.73,2.56H62.35z"/>
	<path class="st2" d="M79.85,39.91c-1.47,2.56-3.78,3.48-5.77,3.48c-3.03,0-6.44-1.94-6.44-6.81c0-5.19,3.58-6.96,6.51-6.96
		c1.17,0,3.73,0.25,5.54,3.13l-2.83,1.62c-0.35-0.72-1.04-1.81-2.54-1.81c-2.04,0-2.76,2.34-2.76,3.9c0,1.64,0.77,3.9,2.88,3.9
		c1.49,0,2.24-1.12,2.51-1.94L79.85,39.91z"/>
	<path class="st2" d="M89.27,42.97v-7.01c0-1.34-0.07-3.06-1.96-3.06c-1.59,0-2.06,1.19-2.06,3.23v6.84h-3.83V25.42h3.83v5.97
		c1.42-1.57,2.96-1.74,3.7-1.74c2.68,0,4.13,1.69,4.13,4.45v8.87H89.27z"/>
	<path class="st2" d="M95.86,42.97v-4.15h3.93v4.15H95.86z"/>
	<path class="st2" d="M106.9,32.65v6.21c0,0.87,0.4,1.07,0.99,1.07c0.27,0,1.34-0.02,1.34-0.02v2.96c-0.25,0.05-1.02,0.2-2.41,0.2
		c-2.09,0-3.7-0.65-3.7-3.68v-6.76h-1.89v-2.34h1.89v-4.05h3.78v4.08h2.54v2.34H106.9z"/>
	<path class="st2" d="M114.45,37.28v0.15c0,1.74,1.19,3.08,2.96,3.08c1.81,0,2.88-1.24,3.28-2.31l2.88,1.49
		c-1.47,2.46-3.78,3.75-6.46,3.75c-3.95,0-6.56-2.51-6.56-6.71c0-3.26,1.59-7.13,6.66-7.13c4.87,0,6.51,3.9,6.51,7.51v0.17H114.45z
		 M119.77,34.89c-0.05-1.44-1.02-2.56-2.59-2.56c-1.81,0-2.56,1.52-2.73,2.56H119.77z"/>
	<path class="st2" d="M137.27,39.91c-1.47,2.56-3.78,3.48-5.77,3.48c-3.03,0-6.44-1.94-6.44-6.81c0-5.19,3.58-6.96,6.51-6.96
		c1.17,0,3.73,0.25,5.54,3.13l-2.83,1.62c-0.35-0.72-1.04-1.81-2.54-1.81c-2.04,0-2.76,2.34-2.76,3.9c0,1.64,0.77,3.9,2.88,3.9
		c1.49,0,2.24-1.12,2.51-1.94L137.27,39.91z"/>
	<path class="st2" d="M146.7,42.97v-7.01c0-1.34-0.07-3.06-1.96-3.06c-1.59,0-2.06,1.19-2.06,3.23v6.84h-3.83V25.42h3.83v5.97
		c1.42-1.57,2.96-1.74,3.7-1.74c2.68,0,4.13,1.69,4.13,4.45v8.87H146.7z"/>
	<path class="st2" d="M153.28,42.97v-4.15h3.93v4.15H153.28z"/>
	<path class="st2" d="M164.32,32.65v6.21c0,0.87,0.4,1.07,0.99,1.07c0.27,0,1.34-0.02,1.34-0.02v2.96c-0.25,0.05-1.02,0.2-2.41,0.2
		c-2.09,0-3.7-0.65-3.7-3.68v-6.76h-1.89v-2.34h1.89v-4.05h3.78v4.08h2.54v2.34H164.32z"/>
	<path class="st2" d="M171.88,37.28v0.15c0,1.74,1.19,3.08,2.96,3.08c1.81,0,2.88-1.24,3.28-2.31l2.88,1.49
		c-1.47,2.46-3.78,3.75-6.46,3.75c-3.95,0-6.56-2.51-6.56-6.71c0-3.26,1.59-7.13,6.66-7.13c4.87,0,6.51,3.9,6.51,7.51v0.17H171.88z
		 M177.2,34.89c-0.05-1.44-1.02-2.56-2.59-2.56c-1.81,0-2.56,1.52-2.73,2.56H177.2z"/>
	<path class="st2" d="M194.7,39.91c-1.47,2.56-3.78,3.48-5.77,3.48c-3.03,0-6.44-1.94-6.44-6.81c0-5.19,3.58-6.96,6.51-6.96
		c1.17,0,3.73,0.25,5.54,3.13l-2.83,1.62c-0.35-0.72-1.04-1.81-2.54-1.81c-2.04,0-2.76,2.34-2.76,3.9c0,1.64,0.77,3.9,2.88,3.9
		c1.49,0,2.24-1.12,2.51-1.94L194.7,39.91z"/>
	<path class="st2" d="M204.12,42.97v-7.01c0-1.34-0.07-3.06-1.96-3.06c-1.59,0-2.06,1.19-2.06,3.23v6.84h-3.83V25.42h3.83v5.97
		c1.42-1.57,2.96-1.74,3.7-1.74c2.68,0,4.13,1.69,4.13,4.45v8.87H204.12z"/>
	<path class="st2" d="M-18.99,72.8v-4.15h3.93v4.15H-18.99z"/>
	<path class="st2" d="M-7.95,62.48v6.21c0,0.87,0.4,1.07,0.99,1.07c0.27,0,1.34-0.02,1.34-0.02v2.96c-0.25,0.05-1.02,0.2-2.41,0.2
		c-2.09,0-3.7-0.65-3.7-3.68v-6.76h-1.89v-2.34h1.89v-4.05h3.78v4.08h2.54v2.34H-7.95z"/>
	<path class="st2" d="M-0.39,67.11v0.15c0,1.74,1.19,3.08,2.96,3.08c1.81,0,2.88-1.24,3.28-2.31l2.88,1.49
		c-1.47,2.46-3.78,3.75-6.46,3.75c-3.95,0-6.56-2.51-6.56-6.71c0-3.26,1.59-7.13,6.66-7.13c4.87,0,6.51,3.9,6.51,7.51v0.17H-0.39z
		 M4.93,64.72c-0.05-1.44-1.02-2.56-2.59-2.56c-1.81,0-2.56,1.52-2.73,2.56H4.93z"/>
	<path class="st2" d="M22.43,69.74c-1.47,2.56-3.78,3.48-5.77,3.48c-3.03,0-6.44-1.94-6.44-6.81c0-5.19,3.58-6.96,6.51-6.96
		c1.17,0,3.73,0.25,5.54,3.13l-2.83,1.62c-0.35-0.72-1.04-1.81-2.54-1.81c-2.04,0-2.76,2.34-2.76,3.9c0,1.64,0.77,3.9,2.88,3.9
		c1.49,0,2.24-1.12,2.51-1.94L22.43,69.74z"/>
	<path class="st2" d="M31.85,72.8v-7.01c0-1.34-0.07-3.06-1.96-3.06c-1.59,0-2.06,1.19-2.06,3.23v6.84h-3.83V55.25h3.83v5.97
		c1.42-1.57,2.96-1.74,3.7-1.74c2.68,0,4.13,1.69,4.13,4.45v8.87H31.85z"/>
	<path class="st2" d="M38.44,72.8v-4.15h3.93v4.15H38.44z"/>
	<path class="st2" d="M49.47,62.48v6.21c0,0.87,0.4,1.07,0.99,1.07c0.27,0,1.34-0.02,1.34-0.02v2.96c-0.25,0.05-1.02,0.2-2.41,0.2
		c-2.09,0-3.7-0.65-3.7-3.68v-6.76h-1.89v-2.34h1.89v-4.05h3.78v4.08h2.54v2.34H49.47z"/>
	<path class="st2" d="M57.03,67.11v0.15c0,1.74,1.19,3.08,2.96,3.08c1.81,0,2.88-1.24,3.28-2.31l2.88,1.49
		c-1.47,2.46-3.78,3.75-6.46,3.75c-3.95,0-6.56-2.51-6.56-6.71c0-3.26,1.59-7.13,6.66-7.13c4.87,0,6.51,3.9,6.51,7.51v0.17H57.03z
		 M62.35,64.72c-0.05-1.44-1.02-2.56-2.59-2.56c-1.81,0-2.56,1.52-2.73,2.56H62.35z"/>
	<path class="st2" d="M79.85,69.74c-1.47,2.56-3.78,3.48-5.77,3.48c-3.03,0-6.44-1.94-6.44-6.81c0-5.19,3.58-6.96,6.51-6.96
		c1.17,0,3.73,0.25,5.54,3.13l-2.83,1.62c-0.35-0.72-1.04-1.81-2.54-1.81c-2.04,0-2.76,2.34-2.76,3.9c0,1.64,0.77,3.9,2.88,3.9
		c1.49,0,2.24-1.12,2.51-1.94L79.85,69.74z"/>
	<path class="st2" d="M89.27,72.8v-7.01c0-1.34-0.07-3.06-1.96-3.06c-1.59,0-2.06,1.19-2.06,3.23v6.84h-3.83V55.25h3.83v5.97
		c1.42-1.57,2.96-1.74,3.7-1.74c2.68,0,4.13,1.69,4.13,4.45v8.87H89.27z"/>
	<path class="st2" d="M95.86,72.8v-4.15h3.93v4.15H95.86z"/>
	<path class="st2" d="M106.9,62.48v6.21c0,0.87,0.4,1.07,0.99,1.07c0.27,0,1.34-0.02,1.34-0.02v2.96c-0.25,0.05-1.02,0.2-2.41,0.2
		c-2.09,0-3.7-0.65-3.7-3.68v-6.76h-1.89v-2.34h1.89v-4.05h3.78v4.08h2.54v2.34H106.9z"/>
	<path class="st2" d="M114.45,67.11v0.15c0,1.74,1.19,3.08,2.96,3.08c1.81,0,2.88-1.24,3.28-2.31l2.88,1.49
		c-1.47,2.46-3.78,3.75-6.46,3.75c-3.95,0-6.56-2.51-6.56-6.71c0-3.26,1.59-7.13,6.66-7.13c4.87,0,6.51,3.9,6.51,7.51v0.17H114.45z
		 M119.77,64.72c-0.05-1.44-1.02-2.56-2.59-2.56c-1.81,0-2.56,1.52-2.73,2.56H119.77z"/>
	<path class="st2" d="M137.27,69.74c-1.47,2.56-3.78,3.48-5.77,3.48c-3.03,0-6.44-1.94-6.44-6.81c0-5.19,3.58-6.96,6.51-6.96
		c1.17,0,3.73,0.25,5.54,3.13l-2.83,1.62c-0.35-0.72-1.04-1.81-2.54-1.81c-2.04,0-2.76,2.34-2.76,3.9c0,1.64,0.77,3.9,2.88,3.9
		c1.49,0,2.24-1.12,2.51-1.94L137.27,69.74z"/>
	<path class="st2" d="M146.7,72.8v-7.01c0-1.34-0.07-3.06-1.96-3.06c-1.59,0-2.06,1.19-2.06,3.23v6.84h-3.83V55.25h3.83v5.97
		c1.42-1.57,2.96-1.74,3.7-1.74c2.68,0,4.13,1.69,4.13,4.45v8.87H146.7z"/>
	<path class="st2" d="M153.28,72.8v-4.15h3.93v4.15H153.28z"/>
	<path class="st2" d="M164.32,62.48v6.21c0,0.87,0.4,1.07,0.99,1.07c0.27,0,1.34-0.02,1.34-0.02v2.96c-0.25,0.05-1.02,0.2-2.41,0.2
		c-2.09,0-3.7-0.65-3.7-3.68v-6.76h-1.89v-2.34h1.89v-4.05h3.78v4.08h2.54v2.34H164.32z"/>
	<path class="st2" d="M171.88,67.11v0.15c0,1.74,1.19,3.08,2.96,3.08c1.81,0,2.88-1.24,3.28-2.31l2.88,1.49
		c-1.47,2.46-3.78,3.75-6.46,3.75c-3.95,0-6.56-2.51-6.56-6.71c0-3.26,1.59-7.13,6.66-7.13c4.87,0,6.51,3.9,6.51,7.51v0.17H171.88z
		 M177.2,64.72c-0.05-1.44-1.02-2.56-2.59-2.56c-1.81,0-2.56,1.52-2.73,2.56H177.2z"/>
	<path class="st2" d="M194.7,69.74c-1.47,2.56-3.78,3.48-5.77,3.48c-3.03,0-6.44-1.94-6.44-6.81c0-5.19,3.58-6.96,6.51-6.96
		c1.17,0,3.73,0.25,5.54,3.13l-2.83,1.62c-0.35-0.72-1.04-1.81-2.54-1.81c-2.04,0-2.76,2.34-2.76,3.9c0,1.64,0.77,3.9,2.88,3.9
		c1.49,0,2.24-1.12,2.51-1.94L194.7,69.74z"/>
	<path class="st2" d="M204.12,72.8v-7.01c0-1.34-0.07-3.06-1.96-3.06c-1.59,0-2.06,1.19-2.06,3.23v6.84h-3.83V55.25h3.83v5.97
		c1.42-1.57,2.96-1.74,3.7-1.74c2.68,0,4.13,1.69,4.13,4.45v8.87H204.12z"/>
	<path class="st2" d="M-18.99,102.63v-4.15h3.93v4.15H-18.99z"/>
	<path class="st2" d="M-7.95,92.31v6.21c0,0.87,0.4,1.07,0.99,1.07c0.27,0,1.34-0.02,1.34-0.02v2.96c-0.25,0.05-1.02,0.2-2.41,0.2
		c-2.09,0-3.7-0.65-3.7-3.68v-6.76h-1.89v-2.34h1.89V85.9h3.78v4.08h2.54v2.34H-7.95z"/>
	<path class="st2" d="M-0.39,96.94v0.15c0,1.74,1.19,3.08,2.96,3.08c1.81,0,2.88-1.24,3.28-2.31l2.88,1.49
		c-1.47,2.46-3.78,3.75-6.46,3.75c-3.95,0-6.56-2.51-6.56-6.71c0-3.26,1.59-7.13,6.66-7.13c4.87,0,6.51,3.9,6.51,7.51v0.17H-0.39z
		 M4.93,94.55c-0.05-1.44-1.02-2.56-2.59-2.56c-1.81,0-2.56,1.52-2.73,2.56H4.93z"/>
	<path class="st2" d="M22.43,99.57c-1.47,2.56-3.78,3.48-5.77,3.48c-3.03,0-6.44-1.94-6.44-6.81c0-5.19,3.58-6.96,6.51-6.96
		c1.17,0,3.73,0.25,5.54,3.13l-2.83,1.62c-0.35-0.72-1.04-1.81-2.54-1.81c-2.04,0-2.76,2.34-2.76,3.9c0,1.64,0.77,3.9,2.88,3.9
		c1.49,0,2.24-1.12,2.51-1.94L22.43,99.57z"/>
	<path class="st2" d="M31.85,102.63v-7.01c0-1.34-0.07-3.06-1.96-3.06c-1.59,0-2.06,1.19-2.06,3.23v6.84h-3.83V85.08h3.83v5.97
		c1.42-1.57,2.96-1.74,3.7-1.74c2.68,0,4.13,1.69,4.13,4.45v8.87H31.85z"/>
	<path class="st2" d="M38.44,102.63v-4.15h3.93v4.15H38.44z"/>
	<path class="st2" d="M49.47,92.31v6.21c0,0.87,0.4,1.07,0.99,1.07c0.27,0,1.34-0.02,1.34-0.02v2.96c-0.25,0.05-1.02,0.2-2.41,0.2
		c-2.09,0-3.7-0.65-3.7-3.68v-6.76h-1.89v-2.34h1.89V85.9h3.78v4.08h2.54v2.34H49.47z"/>
	<path class="st2" d="M57.03,96.94v0.15c0,1.74,1.19,3.08,2.96,3.08c1.81,0,2.88-1.24,3.28-2.31l2.88,1.49
		c-1.47,2.46-3.78,3.75-6.46,3.75c-3.95,0-6.56-2.51-6.56-6.71c0-3.26,1.59-7.13,6.66-7.13c4.87,0,6.51,3.9,6.51,7.51v0.17H57.03z
		 M62.35,94.55c-0.05-1.44-1.02-2.56-2.59-2.56c-1.81,0-2.56,1.52-2.73,2.56H62.35z"/>
	<path class="st2" d="M79.85,99.57c-1.47,2.56-3.78,3.48-5.77,3.48c-3.03,0-6.44-1.94-6.44-6.81c0-5.19,3.58-6.96,6.51-6.96
		c1.17,0,3.73,0.25,5.54,3.13l-2.83,1.62c-0.35-0.72-1.04-1.81-2.54-1.81c-2.04,0-2.76,2.34-2.76,3.9c0,1.64,0.77,3.9,2.88,3.9
		c1.49,0,2.24-1.12,2.51-1.94L79.85,99.57z"/>
	<path class="st2" d="M89.27,102.63v-7.01c0-1.34-0.07-3.06-1.96-3.06c-1.59,0-2.06,1.19-2.06,3.23v6.84h-3.83V85.08h3.83v5.97
		c1.42-1.57,2.96-1.74,3.7-1.74c2.68,0,4.13,1.69,4.13,4.45v8.87H89.27z"/>
	<path class="st2" d="M95.86,102.63v-4.15h3.93v4.15H95.86z"/>
	<path class="st2" d="M106.9,92.31v6.21c0,0.87,0.4,1.07,0.99,1.07c0.27,0,1.34-0.02,1.34-0.02v2.96c-0.25,0.05-1.02,0.2-2.41,0.2
		c-2.09,0-3.7-0.65-3.7-3.68v-6.76h-1.89v-2.34h1.89V85.9h3.78v4.08h2.54v2.34H106.9z"/>
	<path class="st2" d="M114.45,96.94v0.15c0,1.74,1.19,3.08,2.96,3.08c1.81,0,2.88-1.24,3.28-2.31l2.88,1.49
		c-1.47,2.46-3.78,3.75-6.46,3.75c-3.95,0-6.56-2.51-6.56-6.71c0-3.26,1.59-7.13,6.66-7.13c4.87,0,6.51,3.9,6.51,7.51v0.17H114.45z
		 M119.77,94.55c-0.05-1.44-1.02-2.56-2.59-2.56c-1.81,0-2.56,1.52-2.73,2.56H119.77z"/>
	<path class="st2" d="M137.27,99.57c-1.47,2.56-3.78,3.48-5.77,3.48c-3.03,0-6.44-1.94-6.44-6.81c0-5.19,3.58-6.96,6.51-6.96
		c1.17,0,3.73,0.25,5.54,3.13l-2.83,1.62c-0.35-0.72-1.04-1.81-2.54-1.81c-2.04,0-2.76,2.34-2.76,3.9c0,1.64,0.77,3.9,2.88,3.9
		c1.49,0,2.24-1.12,2.51-1.94L137.27,99.57z"/>
	<path class="st2" d="M146.7,102.63v-7.01c0-1.34-0.07-3.06-1.96-3.06c-1.59,0-2.06,1.19-2.06,3.23v6.84h-3.83V85.08h3.83v5.97
		c1.42-1.57,2.96-1.74,3.7-1.74c2.68,0,4.13,1.69,4.13,4.45v8.87H146.7z"/>
	<path class="st2" d="M153.28,102.63v-4.15h3.93v4.15H153.28z"/>
	<path class="st2" d="M164.32,92.31v6.21c0,0.87,0.4,1.07,0.99,1.07c0.27,0,1.34-0.02,1.34-0.02v2.96c-0.25,0.05-1.02,0.2-2.41,0.2
		c-2.09,0-3.7-0.65-3.7-3.68v-6.76h-1.89v-2.34h1.89V85.9h3.78v4.08h2.54v2.34H164.32z"/>
	<path class="st2" d="M171.88,96.94v0.15c0,1.74,1.19,3.08,2.96,3.08c1.81,0,2.88-1.24,3.28-2.31l2.88,1.49
		c-1.47,2.46-3.78,3.75-6.46,3.75c-3.95,0-6.56-2.51-6.56-6.71c0-3.26,1.59-7.13,6.66-7.13c4.87,0,6.51,3.9,6.51,7.51v0.17H171.88z
		 M177.2,94.55c-0.05-1.44-1.02-2.56-2.59-2.56c-1.81,0-2.56,1.52-2.73,2.56H177.2z"/>
	<path class="st2" d="M194.7,99.57c-1.47,2.56-3.78,3.48-5.77,3.48c-3.03,0-6.44-1.94-6.44-6.81c0-5.19,3.58-6.96,6.51-6.96
		c1.17,0,3.73,0.25,5.54,3.13l-2.83,1.62c-0.35-0.72-1.04-1.81-2.54-1.81c-2.04,0-2.76,2.34-2.76,3.9c0,1.64,0.77,3.9,2.88,3.9
		c1.49,0,2.24-1.12,2.51-1.94L194.7,99.57z"/>
	<path class="st2" d="M204.12,102.63v-7.01c0-1.34-0.07-3.06-1.96-3.06c-1.59,0-2.06,1.19-2.06,3.23v6.84h-3.83V85.08h3.83v5.97
		c1.42-1.57,2.96-1.74,3.7-1.74c2.68,0,4.13,1.69,4.13,4.45v8.87H204.12z"/>
	<path class="st2" d="M-18.99,132.46v-4.15h3.93v4.15H-18.99z"/>
	<path class="st2" d="M-7.95,122.14v6.21c0,0.87,0.4,1.07,0.99,1.07c0.27,0,1.34-0.02,1.34-0.02v2.96c-0.25,0.05-1.02,0.2-2.41,0.2
		c-2.09,0-3.7-0.65-3.7-3.68v-6.76h-1.89v-2.34h1.89v-4.05h3.78v4.08h2.54v2.34H-7.95z"/>
	<path class="st2" d="M-0.39,126.77v0.15c0,1.74,1.19,3.08,2.96,3.08c1.81,0,2.88-1.24,3.28-2.31l2.88,1.49
		c-1.47,2.46-3.78,3.75-6.46,3.75c-3.95,0-6.56-2.51-6.56-6.71c0-3.26,1.59-7.13,6.66-7.13c4.87,0,6.51,3.9,6.51,7.51v0.17H-0.39z
		 M4.93,124.38c-0.05-1.44-1.02-2.56-2.59-2.56c-1.81,0-2.56,1.52-2.73,2.56H4.93z"/>
	<path class="st2" d="M22.43,129.4c-1.47,2.56-3.78,3.48-5.77,3.48c-3.03,0-6.44-1.94-6.44-6.81c0-5.19,3.58-6.96,6.51-6.96
		c1.17,0,3.73,0.25,5.54,3.13l-2.83,1.62c-0.35-0.72-1.04-1.81-2.54-1.81c-2.04,0-2.76,2.34-2.76,3.9c0,1.64,0.77,3.9,2.88,3.9
		c1.49,0,2.24-1.12,2.51-1.94L22.43,129.4z"/>
	<path class="st2" d="M31.85,132.46v-7.01c0-1.34-0.07-3.06-1.96-3.06c-1.59,0-2.06,1.19-2.06,3.23v6.84h-3.83v-17.55h3.83v5.97
		c1.42-1.57,2.96-1.74,3.7-1.74c2.68,0,4.13,1.69,4.13,4.45v8.87H31.85z"/>
	<path class="st2" d="M38.44,132.46v-4.15h3.93v4.15H38.44z"/>
	<path class="st2" d="M49.47,122.14v6.21c0,0.87,0.4,1.07,0.99,1.07c0.27,0,1.34-0.02,1.34-0.02v2.96c-0.25,0.05-1.02,0.2-2.41,0.2
		c-2.09,0-3.7-0.65-3.7-3.68v-6.76h-1.89v-2.34h1.89v-4.05h3.78v4.08h2.54v2.34H49.47z"/>
	<path class="st2" d="M57.03,126.77v0.15c0,1.74,1.19,3.08,2.96,3.08c1.81,0,2.88-1.24,3.28-2.31l2.88,1.49
		c-1.47,2.46-3.78,3.75-6.46,3.75c-3.95,0-6.56-2.51-6.56-6.71c0-3.26,1.59-7.13,6.66-7.13c4.87,0,6.51,3.9,6.51,7.51v0.17H57.03z
		 M62.35,124.38c-0.05-1.44-1.02-2.56-2.59-2.56c-1.81,0-2.56,1.52-2.73,2.56H62.35z"/>
	<path class="st2" d="M79.85,129.4c-1.47,2.56-3.78,3.48-5.77,3.48c-3.03,0-6.44-1.94-6.44-6.81c0-5.19,3.58-6.96,6.51-6.96
		c1.17,0,3.73,0.25,5.54,3.13l-2.83,1.62c-0.35-0.72-1.04-1.81-2.54-1.81c-2.04,0-2.76,2.34-2.76,3.9c0,1.64,0.77,3.9,2.88,3.9
		c1.49,0,2.24-1.12,2.51-1.94L79.85,129.4z"/>
	<path class="st2" d="M89.27,132.46v-7.01c0-1.34-0.07-3.06-1.96-3.06c-1.59,0-2.06,1.19-2.06,3.23v6.84h-3.83v-17.55h3.83v5.97
		c1.42-1.57,2.96-1.74,3.7-1.74c2.68,0,4.13,1.69,4.13,4.45v8.87H89.27z"/>
	<path class="st2" d="M95.86,132.46v-4.15h3.93v4.15H95.86z"/>
	<path class="st2" d="M106.9,122.14v6.21c0,0.87,0.4,1.07,0.99,1.07c0.27,0,1.34-0.02,1.34-0.02v2.96c-0.25,0.05-1.02,0.2-2.41,0.2
		c-2.09,0-3.7-0.65-3.7-3.68v-6.76h-1.89v-2.34h1.89v-4.05h3.78v4.08h2.54v2.34H106.9z"/>
	<path class="st2" d="M114.45,126.77v0.15c0,1.74,1.19,3.08,2.96,3.08c1.81,0,2.88-1.24,3.28-2.31l2.88,1.49
		c-1.47,2.46-3.78,3.75-6.46,3.75c-3.95,0-6.56-2.51-6.56-6.71c0-3.26,1.59-7.13,6.66-7.13c4.87,0,6.51,3.9,6.51,7.51v0.17H114.45z
		 M119.77,124.38c-0.05-1.44-1.02-2.56-2.59-2.56c-1.81,0-2.56,1.52-2.73,2.56H119.77z"/>
	<path class="st2" d="M137.27,129.4c-1.47,2.56-3.78,3.48-5.77,3.48c-3.03,0-6.44-1.94-6.44-6.81c0-5.19,3.58-6.96,6.51-6.96
		c1.17,0,3.73,0.25,5.54,3.13l-2.83,1.62c-0.35-0.72-1.04-1.81-2.54-1.81c-2.04,0-2.76,2.34-2.76,3.9c0,1.64,0.77,3.9,2.88,3.9
		c1.49,0,2.24-1.12,2.51-1.94L137.27,129.4z"/>
	<path class="st2" d="M146.7,132.46v-7.01c0-1.34-0.07-3.06-1.96-3.06c-1.59,0-2.06,1.19-2.06,3.23v6.84h-3.83v-17.55h3.83v5.97
		c1.42-1.57,2.96-1.74,3.7-1.74c2.68,0,4.13,1.69,4.13,4.45v8.87H146.7z"/>
	<path class="st2" d="M153.28,132.46v-4.15h3.93v4.15H153.28z"/>
	<path class="st2" d="M164.32,122.14v6.21c0,0.87,0.4,1.07,0.99,1.07c0.27,0,1.34-0.02,1.34-0.02v2.96c-0.25,0.05-1.02,0.2-2.41,0.2
		c-2.09,0-3.7-0.65-3.7-3.68v-6.76h-1.89v-2.34h1.89v-4.05h3.78v4.08h2.54v2.34H164.32z"/>
	<path class="st2" d="M171.88,126.77v0.15c0,1.74,1.19,3.08,2.96,3.08c1.81,0,2.88-1.24,3.28-2.31l2.88,1.49
		c-1.47,2.46-3.78,3.75-6.46,3.75c-3.95,0-6.56-2.51-6.56-6.71c0-3.26,1.59-7.13,6.66-7.13c4.87,0,6.51,3.9,6.51,7.51v0.17H171.88z
		 M177.2,124.38c-0.05-1.44-1.02-2.56-2.59-2.56c-1.81,0-2.56,1.52-2.73,2.56H177.2z"/>
	<path class="st2" d="M194.7,129.4c-1.47,2.56-3.78,3.48-5.77,3.48c-3.03,0-6.44-1.94-6.44-6.81c0-5.19,3.58-6.96,6.51-6.96
		c1.17,0,3.73,0.25,5.54,3.13l-2.83,1.62c-0.35-0.72-1.04-1.81-2.54-1.81c-2.04,0-2.76,2.34-2.76,3.9c0,1.64,0.77,3.9,2.88,3.9
		c1.49,0,2.24-1.12,2.51-1.94L194.7,129.4z"/>
	<path class="st2" d="M204.12,132.46v-7.01c0-1.34-0.07-3.06-1.96-3.06c-1.59,0-2.06,1.19-2.06,3.23v6.84h-3.83v-17.55h3.83v5.97
		c1.42-1.57,2.96-1.74,3.7-1.74c2.68,0,4.13,1.69,4.13,4.45v8.87H204.12z"/>
	<path class="st2" d="M-18.99,162.29v-4.15h3.93v4.15H-18.99z"/>
	<path class="st2" d="M-7.95,151.97v6.21c0,0.87,0.4,1.07,0.99,1.07c0.27,0,1.34-0.02,1.34-0.02v2.96c-0.25,0.05-1.02,0.2-2.41,0.2
		c-2.09,0-3.7-0.65-3.7-3.68v-6.76h-1.89v-2.34h1.89v-4.05h3.78v4.08h2.54v2.34H-7.95z"/>
	<path class="st2" d="M-0.39,156.6v0.15c0,1.74,1.19,3.08,2.96,3.08c1.81,0,2.88-1.24,3.28-2.31l2.88,1.49
		c-1.47,2.46-3.78,3.75-6.46,3.75c-3.95,0-6.56-2.51-6.56-6.71c0-3.26,1.59-7.13,6.66-7.13c4.87,0,6.51,3.9,6.51,7.51v0.17H-0.39z
		 M4.93,154.21c-0.05-1.44-1.02-2.56-2.59-2.56c-1.81,0-2.56,1.52-2.73,2.56H4.93z"/>
	<path class="st2" d="M22.43,159.23c-1.47,2.56-3.78,3.48-5.77,3.48c-3.03,0-6.44-1.94-6.44-6.81c0-5.19,3.58-6.96,6.51-6.96
		c1.17,0,3.73,0.25,5.54,3.13l-2.83,1.62c-0.35-0.72-1.04-1.81-2.54-1.81c-2.04,0-2.76,2.34-2.76,3.9c0,1.64,0.77,3.9,2.88,3.9
		c1.49,0,2.24-1.12,2.51-1.94L22.43,159.23z"/>
	<path class="st2" d="M31.85,162.29v-7.01c0-1.34-0.07-3.06-1.96-3.06c-1.59,0-2.06,1.19-2.06,3.23v6.84h-3.83v-17.55h3.83v5.97
		c1.42-1.57,2.96-1.74,3.7-1.74c2.68,0,4.13,1.69,4.13,4.45v8.87H31.85z"/>
	<path class="st2" d="M38.44,162.29v-4.15h3.93v4.15H38.44z"/>
	<path class="st2" d="M49.47,151.97v6.21c0,0.87,0.4,1.07,0.99,1.07c0.27,0,1.34-0.02,1.34-0.02v2.96c-0.25,0.05-1.02,0.2-2.41,0.2
		c-2.09,0-3.7-0.65-3.7-3.68v-6.76h-1.89v-2.34h1.89v-4.05h3.78v4.08h2.54v2.34H49.47z"/>
	<path class="st2" d="M57.03,156.6v0.15c0,1.74,1.19,3.08,2.96,3.08c1.81,0,2.88-1.24,3.28-2.31l2.88,1.49
		c-1.47,2.46-3.78,3.75-6.46,3.75c-3.95,0-6.56-2.51-6.56-6.71c0-3.26,1.59-7.13,6.66-7.13c4.87,0,6.51,3.9,6.51,7.51v0.17H57.03z
		 M62.35,154.21c-0.05-1.44-1.02-2.56-2.59-2.56c-1.81,0-2.56,1.52-2.73,2.56H62.35z"/>
	<path class="st2" d="M79.85,159.23c-1.47,2.56-3.78,3.48-5.77,3.48c-3.03,0-6.44-1.94-6.44-6.81c0-5.19,3.58-6.96,6.51-6.96
		c1.17,0,3.73,0.25,5.54,3.13l-2.83,1.62c-0.35-0.72-1.04-1.81-2.54-1.81c-2.04,0-2.76,2.34-2.76,3.9c0,1.64,0.77,3.9,2.88,3.9
		c1.49,0,2.24-1.12,2.51-1.94L79.85,159.23z"/>
	<path class="st2" d="M89.27,162.29v-7.01c0-1.34-0.07-3.06-1.96-3.06c-1.59,0-2.06,1.19-2.06,3.23v6.84h-3.83v-17.55h3.83v5.97
		c1.42-1.57,2.96-1.74,3.7-1.74c2.68,0,4.13,1.69,4.13,4.45v8.87H89.27z"/>
	<path class="st2" d="M95.86,162.29v-4.15h3.93v4.15H95.86z"/>
	<path class="st2" d="M106.9,151.97v6.21c0,0.87,0.4,1.07,0.99,1.07c0.27,0,1.34-0.02,1.34-0.02v2.96c-0.25,0.05-1.02,0.2-2.41,0.2
		c-2.09,0-3.7-0.65-3.7-3.68v-6.76h-1.89v-2.34h1.89v-4.05h3.78v4.08h2.54v2.34H106.9z"/>
	<path class="st2" d="M114.45,156.6v0.15c0,1.74,1.19,3.08,2.96,3.08c1.81,0,2.88-1.24,3.28-2.31l2.88,1.49
		c-1.47,2.46-3.78,3.75-6.46,3.75c-3.95,0-6.56-2.51-6.56-6.71c0-3.26,1.59-7.13,6.66-7.13c4.87,0,6.51,3.9,6.51,7.51v0.17H114.45z
		 M119.77,154.21c-0.05-1.44-1.02-2.56-2.59-2.56c-1.81,0-2.56,1.52-2.73,2.56H119.77z"/>
	<path class="st2" d="M137.27,159.23c-1.47,2.56-3.78,3.48-5.77,3.48c-3.03,0-6.44-1.94-6.44-6.81c0-5.19,3.58-6.96,6.51-6.96
		c1.17,0,3.73,0.25,5.54,3.13l-2.83,1.62c-0.35-0.72-1.04-1.81-2.54-1.81c-2.04,0-2.76,2.34-2.76,3.9c0,1.64,0.77,3.9,2.88,3.9
		c1.49,0,2.24-1.12,2.51-1.94L137.27,159.23z"/>
	<path class="st2" d="M146.7,162.29v-7.01c0-1.34-0.07-3.06-1.96-3.06c-1.59,0-2.06,1.19-2.06,3.23v6.84h-3.83v-17.55h3.83v5.97
		c1.42-1.57,2.96-1.74,3.7-1.74c2.68,0,4.13,1.69,4.13,4.45v8.87H146.7z"/>
	<path class="st2" d="M153.28,162.29v-4.15h3.93v4.15H153.28z"/>
	<path class="st2" d="M164.32,151.97v6.21c0,0.87,0.4,1.07,0.99,1.07c0.27,0,1.34-0.02,1.34-0.02v2.96c-0.25,0.05-1.02,0.2-2.41,0.2
		c-2.09,0-3.7-0.65-3.7-3.68v-6.76h-1.89v-2.34h1.89v-4.05h3.78v4.08h2.54v2.34H164.32z"/>
	<path class="st2" d="M171.88,156.6v0.15c0,1.74,1.19,3.08,2.96,3.08c1.81,0,2.88-1.24,3.28-2.31l2.88,1.49
		c-1.47,2.46-3.78,3.75-6.46,3.75c-3.95,0-6.56-2.51-6.56-6.71c0-3.26,1.59-7.13,6.66-7.13c4.87,0,6.51,3.9,6.51,7.51v0.17H171.88z
		 M177.2,154.21c-0.05-1.44-1.02-2.56-2.59-2.56c-1.81,0-2.56,1.52-2.73,2.56H177.2z"/>
	<path class="st2" d="M194.7,159.23c-1.47,2.56-3.78,3.48-5.77,3.48c-3.03,0-6.44-1.94-6.44-6.81c0-5.19,3.58-6.96,6.51-6.96
		c1.17,0,3.73,0.25,5.54,3.13l-2.83,1.62c-0.35-0.72-1.04-1.81-2.54-1.81c-2.04,0-2.76,2.34-2.76,3.9c0,1.64,0.77,3.9,2.88,3.9
		c1.49,0,2.24-1.12,2.51-1.94L194.7,159.23z"/>
	<path class="st2" d="M204.12,162.29v-7.01c0-1.34-0.07-3.06-1.96-3.06c-1.59,0-2.06,1.19-2.06,3.23v6.84h-3.83v-17.55h3.83v5.97
		c1.42-1.57,2.96-1.74,3.7-1.74c2.68,0,4.13,1.69,4.13,4.45v8.87H204.12z"/>
</g>
<g>
	<path class="st3" d="M38.39,47.26c-0.56-3.39-3.2-4.87-6.36-4.87c-5.94,0-7.75,4.83-7.75,9.37c0,7.42,3.76,9.93,8.03,9.93
		c2.65,0,5.85-1.25,6.17-4.59h-6.08v-6.59h15.03v18.14h-7.75v-2.27c-2,1.48-5.34,3.16-9.84,3.16c-6.82,0-16.1-5.01-16.1-17.03
		c0-9.65,6.22-17.96,17.45-17.96c6.59,0,14.52,3.2,16.43,10.12L38.39,47.26z"/>
	<path class="st3" d="M54.21,35.89h14.25c9.42,0,17.31,3.11,17.31,16.19c0,10.9-5.38,16.57-15.17,16.57H54.21V35.89z M68.69,61.13
		c5.99,0,6.68-6.03,6.68-8.86c0-3.11-0.79-8.72-6.4-8.72h-4.36v17.59H68.69z"/>
	<path class="st3" d="M90.45,35.89h14.25c9.42,0,17.31,3.11,17.31,16.19c0,10.9-5.38,16.57-15.17,16.57H90.45V35.89z M104.93,61.13
		c5.99,0,6.68-6.03,6.68-8.86c0-3.11-0.79-8.72-6.4-8.72h-4.36v17.59H104.93z"/>
	<path class="st3" d="M36.79,80.96v24.69H26.44V80.96h-8.35v-8.07h27.01v8.07H36.79z"/>
	<path class="st3" d="M47.69,105.65V72.89h25.94v7.19H58.09v4.87h14.52v7.1H58.04v6.5h16.98v7.1H47.69z"/>
	<path class="st3" d="M110.57,97.2c-1.9,3.57-5.89,9.47-15.96,9.47c-12.11,0-16.98-9.42-16.98-17.21c0-10.35,7.19-17.77,17.03-17.77
		c8.82,0,13.83,5.2,15.87,9.14l-8.68,4.32c-0.83-1.58-2.13-5.43-6.73-5.43c-4.92,0-6.96,4.36-6.96,8.86c0,7.66,3.53,9.75,6.91,9.75
		c4.32,0,5.75-3.16,6.64-5.38L110.57,97.2z"/>
	<path class="st3" d="M134.88,105.65V93.03H125v12.62h-10.35V72.89H125v11.92h9.88V72.89h10.44v32.76H134.88z"/>
</g>
<rect x="-34.36" y="118.94" width="142.26" height="10.49"/>
</svg>
