<?xml version="1.0" encoding="utf-8"?>
<!-- Generator: Adobe Illustrator 25.2.0, SVG Export Plug-In . SVG Version: 6.00 Build 0)  -->
<svg version="1.1" xmlns="http://www.w3.org/2000/svg" xmlns:xlink="http://www.w3.org/1999/xlink" x="0px" y="0px"
	 viewBox="0 0 360 360" style="enable-background:new 0 0 360 360;" xml:space="preserve">
<style type="text/css">
	.st0{fill:#00B451;}
	.st1{fill:#231F20;}
	.st2{fill:#FFFFFF;}
</style>
<g id="Art">
	<g>
		<path class="st0" d="M344.06,15.17H0V154.7c4.52-17.71,17.8-34.42,43.24-34.42c24.21,0,36.38,16.18,40.27,21.1l-17.35,10.49
			c-3.24-6.6-10.88-12.95-21.36-12.95c-14.63,0-23.82,10.88-23.82,29.52c0,10.88,3.24,30.04,23.95,30.04
			c8.29,0,19.16-4.01,19.94-17.09H44.4v-17.35h39.75v50.75H66.28v-8.42c-11.13,10.1-21.75,10.49-26.93,10.49
			c-22.24,0-34.92-15.13-39.35-32.84v47.05h47.38v8.45H25.65v64.27h-9.68v-64.27H0V360h360V122.53h-15.94V15.17z"/>
		<polygon class="st1" points="0,0 0,15.17 344.06,15.17 344.06,122.53 360,122.53 360,0 		"/>
		<path class="st2" d="M39.35,216.86c5.18,0,15.8-0.39,26.93-10.49v8.42h17.87v-50.75H44.4v17.35h20.46
			c-0.78,13.08-11.65,17.09-19.94,17.09c-20.72,0-23.95-19.16-23.95-30.04c0-18.64,9.19-29.52,23.82-29.52
			c10.49,0,18.13,6.34,21.36,12.95l17.35-10.49c-3.88-4.92-16.05-21.1-40.27-21.1C17.8,120.27,4.52,136.98,0,154.7v29.32
			C4.44,201.72,17.11,216.86,39.35,216.86z"/>
		<polygon class="st2" points="15.97,303.79 25.65,303.79 25.65,239.52 47.38,239.52 47.38,231.07 0,231.07 0,239.52 15.97,239.52 
					"/>
	</g>
	<path class="st2" d="M99.39,123.38h31.33c35.34,0,50.49,15.67,50.49,45.7c0,21.75-9.45,45.7-45.83,45.7H99.39V123.38z
		 M122.43,196.4h7.38c19.68,0,28.48-6.86,28.48-27.58c0-14.24-4.66-26.15-24.6-26.15h-11.26V196.4z"/>
	<path class="st2" d="M193.78,123.38h31.33c35.34,0,50.49,15.67,50.49,45.7c0,21.75-9.45,45.7-45.83,45.7h-35.99V123.38z
		 M216.83,196.4h7.38c19.68,0,28.48-6.86,28.48-27.58c0-14.24-4.66-26.15-24.6-26.15h-11.26V196.4z"/>
	<path class="st2" d="M57.86,303.79v-72.72h50.06v8.55H67.13v22.45h35.43v8.45H67.13v24.82h42.02v8.45H57.86z"/>
	<path class="st2" d="M186.64,277.42c-2.47,11.74-12.88,28.22-35.84,28.22c-21.84,0-35.53-15.45-35.53-38.21
		c0-22.66,13.7-38.21,36.77-38.21c17.3,0,28.32,8.34,33.17,22.25l-9.78,1.96c-2.58-8.14-9.89-16.48-23.48-16.48
		c-16.58,0-25.96,12.26-25.96,29.97c0,20.81,11.43,30.59,26.06,30.59c11.33,0,21.73-6.59,24.1-21.32L186.64,277.42z"/>
	<path class="st2" d="M247.59,303.79v-33.27h-39.55v33.27h-9.58v-72.72h9.58v30.9h39.55v-30.9h9.78v72.72H247.59z"/>
</g>
<g id="Foil">
</g>
<g id="dieline_2_">
</g>
<g id="grid">
</g>
</svg>
